<mxfile host="app.diagrams.net" modified="2023-06-28T07:00:32.661Z" agent="Mozilla/5.0 (Windows NT 10.0; Win64; x64) AppleWebKit/537.36 (KHTML, like Gecko) Chrome/114.0.0.0 Safari/537.36" etag="ORWMA9OwAud_sad9osdE" version="21.5.0" type="github">
  <diagram id="prtHgNgQTEPvFCAcTncT" name="Page-1">
    <mxGraphModel dx="1120" dy="452" grid="1" gridSize="10" guides="1" tooltips="1" connect="1" arrows="1" fold="1" page="1" pageScale="1" pageWidth="827" pageHeight="1169" math="0" shadow="0">
      <root>
        <mxCell id="0" />
        <mxCell id="1" parent="0" />
        <mxCell id="u0kxdbxrhBIA5VQf3wec-1" value="On-demand Assistance Process" style="swimlane;html=1;childLayout=stackLayout;resizeParent=1;resizeParentMax=0;horizontal=0;startSize=20;horizontalStack=0;fillColor=#B3B3B3;swimlaneFillColor=default;" vertex="1" parent="1">
          <mxGeometry x="120" y="120" width="820" height="600" as="geometry" />
        </mxCell>
        <mxCell id="u0kxdbxrhBIA5VQf3wec-2" value="" style="edgeStyle=orthogonalEdgeStyle;rounded=0;orthogonalLoop=1;jettySize=auto;html=1;endArrow=classic;endFill=1;entryX=0.5;entryY=0;entryDx=0;entryDy=0;exitX=0.5;exitY=1;exitDx=0;exitDy=0;" edge="1" parent="u0kxdbxrhBIA5VQf3wec-1" source="u0kxdbxrhBIA5VQf3wec-12" target="u0kxdbxrhBIA5VQf3wec-16">
          <mxGeometry relative="1" as="geometry">
            <Array as="points">
              <mxPoint x="350" y="110" />
              <mxPoint x="110" y="110" />
            </Array>
            <mxPoint x="350" y="100" as="sourcePoint" />
          </mxGeometry>
        </mxCell>
        <mxCell id="u0kxdbxrhBIA5VQf3wec-6" value="Beneficiary" style="swimlane;html=1;startSize=20;horizontal=0;fillColor=#A9C4EB;strokeColor=#65a3a4;labelBackgroundColor=none;swimlaneFillColor=#8FBDFF;" vertex="1" parent="u0kxdbxrhBIA5VQf3wec-1">
          <mxGeometry x="20" width="800" height="120" as="geometry" />
        </mxCell>
        <mxCell id="u0kxdbxrhBIA5VQf3wec-7" style="edgeStyle=none;curved=1;rounded=0;orthogonalLoop=1;jettySize=auto;html=1;exitX=1;exitY=0.5;exitDx=0;exitDy=0;entryX=0;entryY=0.5;entryDx=0;entryDy=0;fontSize=12;startSize=8;endSize=8;" edge="1" parent="u0kxdbxrhBIA5VQf3wec-6" source="u0kxdbxrhBIA5VQf3wec-8" target="u0kxdbxrhBIA5VQf3wec-10">
          <mxGeometry relative="1" as="geometry" />
        </mxCell>
        <mxCell id="u0kxdbxrhBIA5VQf3wec-8" value="Login into Self Service Portal" style="ellipse;whiteSpace=wrap;html=1;" vertex="1" parent="u0kxdbxrhBIA5VQf3wec-6">
          <mxGeometry x="40" y="25" width="70" height="70" as="geometry" />
        </mxCell>
        <mxCell id="u0kxdbxrhBIA5VQf3wec-9" style="edgeStyle=none;curved=1;rounded=0;orthogonalLoop=1;jettySize=auto;html=1;exitX=1;exitY=0.5;exitDx=0;exitDy=0;entryX=0;entryY=0.5;entryDx=0;entryDy=0;fontSize=12;startSize=8;endSize=8;" edge="1" parent="u0kxdbxrhBIA5VQf3wec-6" source="u0kxdbxrhBIA5VQf3wec-10" target="u0kxdbxrhBIA5VQf3wec-12">
          <mxGeometry relative="1" as="geometry" />
        </mxCell>
        <mxCell id="u0kxdbxrhBIA5VQf3wec-10" value="Identity verification with QR code" style="rounded=0;whiteSpace=wrap;html=1;fontFamily=Helvetica;fontSize=12;fontColor=#000000;align=center;" vertex="1" parent="u0kxdbxrhBIA5VQf3wec-6">
          <mxGeometry x="160" y="30" width="80" height="60" as="geometry" />
        </mxCell>
        <mxCell id="u0kxdbxrhBIA5VQf3wec-12" value="Application and document upload" style="rounded=0;whiteSpace=wrap;html=1;fontFamily=Helvetica;fontSize=12;fontColor=#000000;align=center;" vertex="1" parent="u0kxdbxrhBIA5VQf3wec-6">
          <mxGeometry x="290" y="30" width="80" height="60" as="geometry" />
        </mxCell>
        <mxCell id="u0kxdbxrhBIA5VQf3wec-13" value="Receive assistance from service provider" style="ellipse;whiteSpace=wrap;html=1;" vertex="1" parent="u0kxdbxrhBIA5VQf3wec-6">
          <mxGeometry x="692" y="25" width="70" height="70" as="geometry" />
        </mxCell>
        <mxCell id="u0kxdbxrhBIA5VQf3wec-47" value="Visit service provider with entitlement voucher" style="rounded=0;whiteSpace=wrap;html=1;fontFamily=Helvetica;fontSize=12;fontColor=#000000;align=center;" vertex="1" parent="u0kxdbxrhBIA5VQf3wec-6">
          <mxGeometry x="570" y="30" width="80" height="60" as="geometry" />
        </mxCell>
        <mxCell id="u0kxdbxrhBIA5VQf3wec-14" value="Social Worker" style="swimlane;html=1;startSize=20;horizontal=0;fillColor=#99FF99;strokeColor=#82B366;swimlaneFillColor=#99FF99;" vertex="1" parent="u0kxdbxrhBIA5VQf3wec-1">
          <mxGeometry x="20" y="120" width="800" height="120" as="geometry" />
        </mxCell>
        <mxCell id="u0kxdbxrhBIA5VQf3wec-27" style="edgeStyle=orthogonalEdgeStyle;rounded=0;orthogonalLoop=1;jettySize=auto;html=1;exitX=1;exitY=0.5;exitDx=0;exitDy=0;entryX=0;entryY=0.5;entryDx=0;entryDy=0;" edge="1" parent="u0kxdbxrhBIA5VQf3wec-14" source="u0kxdbxrhBIA5VQf3wec-16" target="u0kxdbxrhBIA5VQf3wec-24">
          <mxGeometry relative="1" as="geometry" />
        </mxCell>
        <mxCell id="u0kxdbxrhBIA5VQf3wec-16" value="Document inspection and enrollment" style="rounded=0;whiteSpace=wrap;html=1;fontFamily=Helvetica;fontSize=12;fontColor=#000000;align=center;" vertex="1" parent="u0kxdbxrhBIA5VQf3wec-14">
          <mxGeometry x="50" y="30" width="80" height="60" as="geometry" />
        </mxCell>
        <mxCell id="u0kxdbxrhBIA5VQf3wec-17" value="Accept?" style="rhombus;whiteSpace=wrap;html=1;fontFamily=Helvetica;fontSize=12;fontColor=#000000;align=center;" vertex="1" parent="u0kxdbxrhBIA5VQf3wec-14">
          <mxGeometry x="450" y="20" width="80" height="80" as="geometry" />
        </mxCell>
        <mxCell id="u0kxdbxrhBIA5VQf3wec-28" style="edgeStyle=orthogonalEdgeStyle;rounded=0;orthogonalLoop=1;jettySize=auto;html=1;exitX=1;exitY=0.5;exitDx=0;exitDy=0;entryX=0;entryY=0.5;entryDx=0;entryDy=0;" edge="1" parent="u0kxdbxrhBIA5VQf3wec-14" source="u0kxdbxrhBIA5VQf3wec-24" target="u0kxdbxrhBIA5VQf3wec-25">
          <mxGeometry relative="1" as="geometry" />
        </mxCell>
        <mxCell id="u0kxdbxrhBIA5VQf3wec-24" value="Deduplication of enrolled beneficiaries" style="rounded=0;whiteSpace=wrap;html=1;fontFamily=Helvetica;fontSize=12;fontColor=#000000;align=center;" vertex="1" parent="u0kxdbxrhBIA5VQf3wec-14">
          <mxGeometry x="180" y="30" width="80" height="60" as="geometry" />
        </mxCell>
        <mxCell id="u0kxdbxrhBIA5VQf3wec-29" style="edgeStyle=orthogonalEdgeStyle;rounded=0;orthogonalLoop=1;jettySize=auto;html=1;exitX=1;exitY=0.5;exitDx=0;exitDy=0;entryX=0;entryY=0.5;entryDx=0;entryDy=0;" edge="1" parent="u0kxdbxrhBIA5VQf3wec-14" source="u0kxdbxrhBIA5VQf3wec-25" target="u0kxdbxrhBIA5VQf3wec-17">
          <mxGeometry relative="1" as="geometry" />
        </mxCell>
        <mxCell id="u0kxdbxrhBIA5VQf3wec-25" value="Beneficiary eligibility assessment" style="rounded=0;whiteSpace=wrap;html=1;fontFamily=Helvetica;fontSize=12;fontColor=#000000;align=center;" vertex="1" parent="u0kxdbxrhBIA5VQf3wec-14">
          <mxGeometry x="310" y="30" width="80" height="60" as="geometry" />
        </mxCell>
        <mxCell id="u0kxdbxrhBIA5VQf3wec-34" value="Yes" style="text;html=1;strokeColor=none;fillColor=none;align=center;verticalAlign=middle;whiteSpace=wrap;rounded=0;" vertex="1" parent="u0kxdbxrhBIA5VQf3wec-14">
          <mxGeometry x="440" y="94" width="60" height="30" as="geometry" />
        </mxCell>
        <mxCell id="u0kxdbxrhBIA5VQf3wec-18" value="Junior Officer" style="swimlane;html=1;startSize=20;horizontal=0;fillColor=#FFE599;strokeColor=#D79B00;swimlaneFillColor=#FFE599;" vertex="1" parent="u0kxdbxrhBIA5VQf3wec-1">
          <mxGeometry x="20" y="240" width="800" height="120" as="geometry" />
        </mxCell>
        <mxCell id="u0kxdbxrhBIA5VQf3wec-32" style="edgeStyle=orthogonalEdgeStyle;rounded=0;orthogonalLoop=1;jettySize=auto;html=1;exitX=0;exitY=0.5;exitDx=0;exitDy=0;entryX=1;entryY=0.5;entryDx=0;entryDy=0;" edge="1" parent="u0kxdbxrhBIA5VQf3wec-18" source="u0kxdbxrhBIA5VQf3wec-20" target="u0kxdbxrhBIA5VQf3wec-31">
          <mxGeometry relative="1" as="geometry" />
        </mxCell>
        <mxCell id="u0kxdbxrhBIA5VQf3wec-20" value="Document inspection and verification" style="rounded=0;whiteSpace=wrap;html=1;fontFamily=Helvetica;fontSize=12;fontColor=#000000;align=center;" vertex="1" parent="u0kxdbxrhBIA5VQf3wec-18">
          <mxGeometry x="450" y="30" width="80" height="60" as="geometry" />
        </mxCell>
        <mxCell id="u0kxdbxrhBIA5VQf3wec-35" style="edgeStyle=orthogonalEdgeStyle;rounded=0;orthogonalLoop=1;jettySize=auto;html=1;exitX=0;exitY=0.5;exitDx=0;exitDy=0;entryX=1;entryY=0.5;entryDx=0;entryDy=0;" edge="1" parent="u0kxdbxrhBIA5VQf3wec-18" source="u0kxdbxrhBIA5VQf3wec-31" target="u0kxdbxrhBIA5VQf3wec-33">
          <mxGeometry relative="1" as="geometry" />
        </mxCell>
        <mxCell id="u0kxdbxrhBIA5VQf3wec-31" value="Beneficiary eligibility assessment" style="rounded=0;whiteSpace=wrap;html=1;fontFamily=Helvetica;fontSize=12;fontColor=#000000;align=center;" vertex="1" parent="u0kxdbxrhBIA5VQf3wec-18">
          <mxGeometry x="310" y="30" width="80" height="60" as="geometry" />
        </mxCell>
        <mxCell id="u0kxdbxrhBIA5VQf3wec-33" value="Accept?" style="rhombus;whiteSpace=wrap;html=1;fontFamily=Helvetica;fontSize=12;fontColor=#000000;align=center;" vertex="1" parent="u0kxdbxrhBIA5VQf3wec-18">
          <mxGeometry x="170" y="20" width="80" height="80" as="geometry" />
        </mxCell>
        <mxCell id="u0kxdbxrhBIA5VQf3wec-37" value="Yes" style="text;html=1;strokeColor=none;fillColor=none;align=center;verticalAlign=middle;whiteSpace=wrap;rounded=0;" vertex="1" parent="u0kxdbxrhBIA5VQf3wec-18">
          <mxGeometry x="120" y="60" width="60" height="30" as="geometry" />
        </mxCell>
        <mxCell id="u0kxdbxrhBIA5VQf3wec-22" value="Senior Officer" style="swimlane;html=1;startSize=20;horizontal=0;swimlaneFillColor=#F19C99;fillColor=#F19C99;strokeColor=#FF3399;" vertex="1" parent="u0kxdbxrhBIA5VQf3wec-1">
          <mxGeometry x="20" y="360" width="800" height="120" as="geometry">
            <mxRectangle x="20" y="360" width="430" height="40" as="alternateBounds" />
          </mxGeometry>
        </mxCell>
        <mxCell id="u0kxdbxrhBIA5VQf3wec-43" style="edgeStyle=orthogonalEdgeStyle;rounded=0;orthogonalLoop=1;jettySize=auto;html=1;exitX=1;exitY=0.5;exitDx=0;exitDy=0;entryX=0;entryY=0.5;entryDx=0;entryDy=0;" edge="1" parent="u0kxdbxrhBIA5VQf3wec-22" source="u0kxdbxrhBIA5VQf3wec-38" target="u0kxdbxrhBIA5VQf3wec-39">
          <mxGeometry relative="1" as="geometry" />
        </mxCell>
        <mxCell id="u0kxdbxrhBIA5VQf3wec-38" value="Document inspection and verification" style="rounded=0;whiteSpace=wrap;html=1;fontFamily=Helvetica;fontSize=12;fontColor=#000000;align=center;" vertex="1" parent="u0kxdbxrhBIA5VQf3wec-22">
          <mxGeometry x="50" y="30" width="80" height="60" as="geometry" />
        </mxCell>
        <mxCell id="u0kxdbxrhBIA5VQf3wec-44" style="edgeStyle=orthogonalEdgeStyle;rounded=0;orthogonalLoop=1;jettySize=auto;html=1;exitX=1;exitY=0.5;exitDx=0;exitDy=0;entryX=0;entryY=0.5;entryDx=0;entryDy=0;" edge="1" parent="u0kxdbxrhBIA5VQf3wec-22" source="u0kxdbxrhBIA5VQf3wec-39" target="u0kxdbxrhBIA5VQf3wec-40">
          <mxGeometry relative="1" as="geometry" />
        </mxCell>
        <mxCell id="u0kxdbxrhBIA5VQf3wec-39" value="Beneficiary eligibility assessment" style="rounded=0;whiteSpace=wrap;html=1;fontFamily=Helvetica;fontSize=12;fontColor=#000000;align=center;" vertex="1" parent="u0kxdbxrhBIA5VQf3wec-22">
          <mxGeometry x="190" y="30" width="80" height="60" as="geometry" />
        </mxCell>
        <mxCell id="u0kxdbxrhBIA5VQf3wec-45" style="edgeStyle=orthogonalEdgeStyle;rounded=0;orthogonalLoop=1;jettySize=auto;html=1;exitX=1;exitY=0.5;exitDx=0;exitDy=0;entryX=0;entryY=0.5;entryDx=0;entryDy=0;" edge="1" parent="u0kxdbxrhBIA5VQf3wec-22" source="u0kxdbxrhBIA5VQf3wec-40" target="u0kxdbxrhBIA5VQf3wec-41">
          <mxGeometry relative="1" as="geometry" />
        </mxCell>
        <mxCell id="u0kxdbxrhBIA5VQf3wec-40" value="Accept?" style="rhombus;whiteSpace=wrap;html=1;fontFamily=Helvetica;fontSize=12;fontColor=#000000;align=center;" vertex="1" parent="u0kxdbxrhBIA5VQf3wec-22">
          <mxGeometry x="320" y="20" width="80" height="80" as="geometry" />
        </mxCell>
        <mxCell id="u0kxdbxrhBIA5VQf3wec-41" value="Generate entitlement voucher with QR code" style="rounded=0;whiteSpace=wrap;html=1;fontFamily=Helvetica;fontSize=12;fontColor=#000000;align=center;" vertex="1" parent="u0kxdbxrhBIA5VQf3wec-22">
          <mxGeometry x="450" y="30" width="80" height="60" as="geometry" />
        </mxCell>
        <mxCell id="u0kxdbxrhBIA5VQf3wec-46" value="Yes" style="text;html=1;strokeColor=none;fillColor=none;align=center;verticalAlign=middle;whiteSpace=wrap;rounded=0;" vertex="1" parent="u0kxdbxrhBIA5VQf3wec-22">
          <mxGeometry x="390" y="30" width="60" height="30" as="geometry" />
        </mxCell>
        <mxCell id="u0kxdbxrhBIA5VQf3wec-23" value="Service Provider" style="swimlane;html=1;startSize=20;horizontal=0;fillColor=#D1A1E8;swimlaneFillColor=#C698DB;strokeColor=#7F00FF;" vertex="1" parent="u0kxdbxrhBIA5VQf3wec-1">
          <mxGeometry x="20" y="480" width="800" height="120" as="geometry" />
        </mxCell>
        <mxCell id="u0kxdbxrhBIA5VQf3wec-52" style="edgeStyle=orthogonalEdgeStyle;rounded=0;orthogonalLoop=1;jettySize=auto;html=1;exitX=1;exitY=0.5;exitDx=0;exitDy=0;entryX=0;entryY=0.5;entryDx=0;entryDy=0;" edge="1" parent="u0kxdbxrhBIA5VQf3wec-23" source="u0kxdbxrhBIA5VQf3wec-49" target="u0kxdbxrhBIA5VQf3wec-50">
          <mxGeometry relative="1" as="geometry" />
        </mxCell>
        <mxCell id="u0kxdbxrhBIA5VQf3wec-49" value="Scan QR code in entitlement voucher" style="rounded=0;whiteSpace=wrap;html=1;fontFamily=Helvetica;fontSize=12;fontColor=#000000;align=center;" vertex="1" parent="u0kxdbxrhBIA5VQf3wec-23">
          <mxGeometry x="570" y="30" width="80" height="60" as="geometry" />
        </mxCell>
        <mxCell id="u0kxdbxrhBIA5VQf3wec-50" value="Valid scan?" style="rhombus;whiteSpace=wrap;html=1;fontFamily=Helvetica;fontSize=12;fontColor=#000000;align=center;" vertex="1" parent="u0kxdbxrhBIA5VQf3wec-23">
          <mxGeometry x="687" y="20" width="80" height="80" as="geometry" />
        </mxCell>
        <mxCell id="u0kxdbxrhBIA5VQf3wec-53" value="Yes" style="text;html=1;strokeColor=none;fillColor=none;align=center;verticalAlign=middle;whiteSpace=wrap;rounded=0;" vertex="1" parent="u0kxdbxrhBIA5VQf3wec-23">
          <mxGeometry x="640" y="30" width="60" height="30" as="geometry" />
        </mxCell>
        <mxCell id="u0kxdbxrhBIA5VQf3wec-30" style="edgeStyle=orthogonalEdgeStyle;rounded=0;orthogonalLoop=1;jettySize=auto;html=1;exitX=0.5;exitY=1;exitDx=0;exitDy=0;entryX=0.5;entryY=0;entryDx=0;entryDy=0;" edge="1" parent="u0kxdbxrhBIA5VQf3wec-1" source="u0kxdbxrhBIA5VQf3wec-17" target="u0kxdbxrhBIA5VQf3wec-20">
          <mxGeometry relative="1" as="geometry" />
        </mxCell>
        <mxCell id="u0kxdbxrhBIA5VQf3wec-42" style="edgeStyle=orthogonalEdgeStyle;rounded=0;orthogonalLoop=1;jettySize=auto;html=1;exitX=0;exitY=0.5;exitDx=0;exitDy=0;entryX=0.5;entryY=0;entryDx=0;entryDy=0;" edge="1" parent="u0kxdbxrhBIA5VQf3wec-1" source="u0kxdbxrhBIA5VQf3wec-33" target="u0kxdbxrhBIA5VQf3wec-38">
          <mxGeometry relative="1" as="geometry" />
        </mxCell>
        <mxCell id="u0kxdbxrhBIA5VQf3wec-48" style="edgeStyle=orthogonalEdgeStyle;rounded=0;orthogonalLoop=1;jettySize=auto;html=1;exitX=1;exitY=0.5;exitDx=0;exitDy=0;entryX=0;entryY=0.5;entryDx=0;entryDy=0;" edge="1" parent="u0kxdbxrhBIA5VQf3wec-1" source="u0kxdbxrhBIA5VQf3wec-41" target="u0kxdbxrhBIA5VQf3wec-47">
          <mxGeometry relative="1" as="geometry">
            <Array as="points">
              <mxPoint x="570" y="420" />
              <mxPoint x="570" y="60" />
            </Array>
          </mxGeometry>
        </mxCell>
        <mxCell id="u0kxdbxrhBIA5VQf3wec-51" style="edgeStyle=orthogonalEdgeStyle;rounded=0;orthogonalLoop=1;jettySize=auto;html=1;exitX=0.5;exitY=1;exitDx=0;exitDy=0;" edge="1" parent="u0kxdbxrhBIA5VQf3wec-1" source="u0kxdbxrhBIA5VQf3wec-47" target="u0kxdbxrhBIA5VQf3wec-49">
          <mxGeometry relative="1" as="geometry" />
        </mxCell>
        <mxCell id="u0kxdbxrhBIA5VQf3wec-54" style="edgeStyle=orthogonalEdgeStyle;rounded=0;orthogonalLoop=1;jettySize=auto;html=1;exitX=0.5;exitY=0;exitDx=0;exitDy=0;" edge="1" parent="u0kxdbxrhBIA5VQf3wec-1" source="u0kxdbxrhBIA5VQf3wec-50" target="u0kxdbxrhBIA5VQf3wec-13">
          <mxGeometry relative="1" as="geometry" />
        </mxCell>
      </root>
    </mxGraphModel>
  </diagram>
</mxfile>
